<?xml version="1.0" encoding="UTF-8" standalone="no"?>
<svg
   xmlns:dc="http://purl.org/dc/elements/1.1/"
   xmlns:cc="http://creativecommons.org/ns#"
   xmlns:rdf="http://www.w3.org/1999/02/22-rdf-syntax-ns#"
   xmlns:svg="http://www.w3.org/2000/svg"
   xmlns="http://www.w3.org/2000/svg"
   width="98.174614mm"
   height="62.963486mm"
   viewBox="0 0 98.174614 62.963486"
   version="1.1"
   id="svg8">
  <defs
     id="defs2">
    <rect
       x="45.435822"
       y="127.2203"
       width="9.3544331"
       height="19.510675"
       id="rect189" />
    <rect
       x="35.814117"
       y="119.20221"
       width="44.63401"
       height="13.898015"
       id="rect34" />
    <rect
       x="18.708866"
       y="136.57474"
       width="69.490074"
       height="27.528761"
       id="rect28" />
    <rect
       x="31.270535"
       y="89.000755"
       width="79.111786"
       height="27.261492"
       id="rect12" />
    <rect
       x="31.270535"
       y="89.000755"
       width="79.111786"
       height="27.261492"
       id="rect12-6" />
    <rect
       x="31.270535"
       y="89.000755"
       width="79.111786"
       height="27.261492"
       id="rect51" />
    <rect
       x="31.270535"
       y="89.000755"
       width="79.111786"
       height="27.261492"
       id="rect12-6-2" />
    <rect
       x="31.270535"
       y="89.000755"
       width="79.111786"
       height="27.261492"
       id="rect109" />
    <rect
       x="31.270535"
       y="89.000755"
       width="79.111786"
       height="27.261492"
       id="rect12-6-9" />
    <rect
       x="31.270535"
       y="89.000755"
       width="79.111786"
       height="27.261492"
       id="rect143" />
    <rect
       x="31.270535"
       y="89.000755"
       width="79.111786"
       height="27.261492"
       id="rect12-6-6" />
    <rect
       x="31.270535"
       y="89.000755"
       width="79.111786"
       height="27.261492"
       id="rect143-9" />
  </defs>
  <metadata
     id="metadata5">
    <rdf:RDF>
      <cc:Work
         rdf:about="">
        <dc:format>image/svg+xml</dc:format>
        <dc:type
           rdf:resource="http://purl.org/dc/dcmitype/StillImage" />
        <dc:title></dc:title>
      </cc:Work>
    </rdf:RDF>
  </metadata>
  <text
     xml:space="preserve"
     style="font-style:normal;font-weight:normal;font-size:10.5833px;line-height:1.25;font-family:sans-serif;fill:#999999;fill-opacity:1;stroke:none;stroke-width:0.264583"
     x="25.618332"
     y="58.019009"
     id="text18"><tspan
       x="25.618332"
       y="58.019009"
       style="fill:#999999;stroke-width:0.264583"
       id="tspan20" /></text>
  <text
     xml:space="preserve"
     id="text26"
     style="font-style:normal;font-weight:normal;font-size:10.5833px;line-height:1.25;font-family:sans-serif;white-space:pre;shape-inside:url(#rect28);fill:#999999;fill-opacity:1;stroke:none;"
     transform="translate(-19.817489,-61.717741)" />
  <text
     xml:space="preserve"
     id="text32"
     style="font-style:normal;font-weight:normal;font-size:10.5833px;line-height:1.25;font-family:sans-serif;white-space:pre;shape-inside:url(#rect34);fill:#999999;fill-opacity:1;stroke:none;"
     transform="translate(-19.817489,-61.717741)" />
  <text
     xml:space="preserve"
     style="font-style:normal;font-weight:normal;font-size:10.5833px;line-height:1.25;font-family:sans-serif;fill:#999999;fill-opacity:1;stroke:none;stroke-width:0.264583"
     x="27.221947"
     y="64.433464"
     id="text40"><tspan
       id="tspan38"
       x="27.221947"
       y="64.433464"
       style="fill:#999999;stroke-width:0.264583" /></text>
  <text
     xml:space="preserve"
     id="text10-5-0"
     style="font-style:normal;font-weight:normal;font-size:10.5833px;line-height:1.25;font-family:sans-serif;white-space:pre;shape-inside:url(#rect12-6-2);fill:#999999;fill-opacity:1;stroke:none;"
     transform="translate(-20.229362,-57.173562)"><tspan
       x="31.271484"
       y="98.655465"><tspan
         style="font-style:normal;font-variant:normal;font-weight:bold;font-stretch:normal;font-family:Sylfaen;-inkscape-font-specification:Sylfaen;fill:#999999">
</tspan></tspan></text>
  <text
     xml:space="preserve"
     id="text10-5-4"
     style="font-style:normal;font-weight:normal;font-size:10.5833px;line-height:1.25;font-family:sans-serif;white-space:pre;shape-inside:url(#rect12-6-9);fill:#999999;fill-opacity:1;stroke:none;"
     transform="translate(-18.091206,-53.699057)"><tspan
       x="31.271484"
       y="98.655465"><tspan
         style="font-style:normal;font-variant:normal;font-weight:bold;font-stretch:normal;font-family:Sylfaen;-inkscape-font-specification:Sylfaen;fill:#999999">
</tspan></tspan></text>
  <text
     xml:space="preserve"
     id="text187"
     style="font-style:normal;font-weight:normal;font-size:10.5833px;line-height:1.25;font-family:sans-serif;white-space:pre;shape-inside:url(#rect189);fill:#999999;fill-opacity:1;stroke:none;"
     transform="translate(-19.817489,-61.717741)" />
  <g
     id="g1719">
    <g
       id="g1689"
       transform="translate(0,3.1750002)">
      <g
         aria-label="ADVOKATAS "
         transform="matrix(1.6374696,0,0,1.6374696,-31.751021,-104.90962)"
         id="text10-5"
         style="font-style:normal;font-weight:normal;font-size:7.05556px;line-height:1.25;font-family:sans-serif;white-space:pre;shape-inside:url(#rect12-6);fill:#f2f2f2;fill-opacity:1;stroke:none">
        <path
           d="m 31.042571,95.245717 0.288494,-0.109753 q 0.134839,-0.05331 0.185012,-0.185012 l 1.244915,-3.179706 0.379432,-0.721235 h 0.379432 l 1.536544,3.900941 q 0.02509,0.06272 0.07526,0.112889 0.05331,0.05017 0.109753,0.07212 l 0.288494,0.109753 v 0.191284 h -1.887754 v -0.191284 l 0.54563,-0.134839 -0.470371,-1.194742 H 32.32825 l -0.454691,1.182199 0.533087,0.147382 v 0.191284 h -1.364075 z m 2.540001,-1.674519 -0.41079,-1.041087 -0.159926,-0.423334 -0.54563,1.464421 z"
           style="font-style:normal;font-variant:normal;font-weight:bold;font-stretch:normal;font-size:7.05556px;font-family:'Sitka Banner';-inkscape-font-specification:'Sitka Banner';fill:#f2f2f2;fill-opacity:1"
           id="path1092" />
        <path
           d="m 35.42328,95.245717 0.398247,-0.116024 q 0.06899,-0.01882 0.106617,-0.06585 0.04077,-0.05017 0.04077,-0.119161 v -3.336496 q 0,-0.07212 -0.04077,-0.11916 -0.03763,-0.05017 -0.106617,-0.06899 L 35.42328,91.307147 v -0.191284 h 2.016322 q 0.21637,0 0.464099,0.04076 0.250864,0.04077 0.495457,0.137976 0.244593,0.09407 0.470371,0.254 0.225778,0.159926 0.395111,0.401383 0.172469,0.241457 0.275951,0.570716 0.103481,0.32926 0.103481,0.762001 0,0.551901 -0.175605,0.959556 -0.172469,0.404519 -0.473506,0.671062 -0.301037,0.263408 -0.705556,0.395111 -0.404519,0.128568 -0.862346,0.128568 H 35.42328 Z m 2.025729,-0.150518 q 0.313581,0 0.542494,-0.112889 0.23205,-0.116025 0.385704,-0.335531 0.153655,-0.219507 0.228914,-0.536223 0.07526,-0.319852 0.07526,-0.727507 0,-0.445284 -0.100345,-0.802766 Q 38.48069,92.222802 38.298813,91.975073 38.116936,91.724209 37.8598,91.589369 37.602664,91.45453 37.292219,91.45453 h -0.432741 v 3.640669 z"
           style="font-style:normal;font-variant:normal;font-weight:bold;font-stretch:normal;font-size:7.05556px;font-family:'Sitka Banner';-inkscape-font-specification:'Sitka Banner';fill:#f2f2f2;fill-opacity:1"
           id="path1094" />
        <path
           d="m 40.054862,91.601912 q -0.02509,-0.05958 -0.07212,-0.109753 -0.0439,-0.05331 -0.112889,-0.0784 l -0.307309,-0.106617 v -0.191284 h 1.915977 v 0.191284 l -0.539359,0.134839 1.022273,2.568224 0.169333,0.44842 v 0 l 1.119482,-2.972742 -0.520543,-0.178741 v -0.191284 h 1.386025 v 0.191284 l -0.301037,0.137975 q -0.06272,0.02822 -0.112889,0.0784 -0.04704,0.05017 -0.07212,0.109754 l -1.241779,3.154619 -0.357482,0.711827 H 41.60395 Z"
           style="font-style:normal;font-variant:normal;font-weight:bold;font-stretch:normal;font-size:7.05556px;font-family:'Sitka Banner';-inkscape-font-specification:'Sitka Banner';fill:#f2f2f2;fill-opacity:1"
           id="path1096" />
        <path
           d="m 46.122628,95.534211 q -0.504864,0 -0.89684,-0.166197 -0.391975,-0.169334 -0.661654,-0.467235 -0.266544,-0.301037 -0.404519,-0.714964 -0.137976,-0.417062 -0.137976,-0.912519 0,-0.47037 0.141112,-0.881161 0.144247,-0.41079 0.413926,-0.714963 0.272815,-0.307309 0.66479,-0.482914 0.391976,-0.175605 0.887433,-0.175605 0.539358,0 0.93447,0.181877 0.395111,0.17874 0.652247,0.486049 0.260272,0.307309 0.385704,0.718099 0.128568,0.407655 0.128568,0.868618 0,0.272815 -0.05331,0.54563 -0.05331,0.272815 -0.163061,0.52368 -0.109754,0.250864 -0.279087,0.47037 -0.169334,0.216371 -0.404519,0.376297 -0.235185,0.159926 -0.536222,0.250864 -0.301038,0.09407 -0.671063,0.09407 z m 0.05017,-0.335531 q 0.275951,0 0.482914,-0.141111 0.206963,-0.141111 0.341803,-0.385704 0.137975,-0.247728 0.203827,-0.580124 0.06899,-0.335531 0.06899,-0.721235 0,-0.445284 -0.07212,-0.815309 -0.06899,-0.370025 -0.21637,-0.636568 -0.147383,-0.266544 -0.373161,-0.413926 -0.222642,-0.150519 -0.533087,-0.150519 -0.294765,0 -0.501728,0.150519 -0.206963,0.150518 -0.338667,0.404518 -0.131704,0.250865 -0.191284,0.580124 -0.05958,0.326124 -0.05958,0.68047 0,0.435877 0.06899,0.809037 0.06899,0.370025 0.213235,0.64284 0.144247,0.269679 0.370025,0.423334 0.225778,0.153654 0.536222,0.153654 z"
           style="font-style:normal;font-variant:normal;font-weight:bold;font-stretch:normal;font-size:7.05556px;font-family:'Sitka Banner';-inkscape-font-specification:'Sitka Banner';fill:#f2f2f2;fill-opacity:1"
           id="path1098" />
        <path
           d="m 48.483887,95.245717 0.398248,-0.116024 q 0.06585,-0.01882 0.106617,-0.06585 0.04077,-0.05017 0.04077,-0.119161 v -3.336496 q 0,-0.07212 -0.0439,-0.11916 -0.04077,-0.05017 -0.103481,-0.06899 l -0.398248,-0.112889 v -0.191284 h 1.981829 v 0.191284 l -0.395111,0.112889 q -0.05958,0.01568 -0.106618,0.06899 -0.0439,0.05017 -0.0439,0.11916 v 1.705878 l 1.677655,-1.83131 -0.407654,-0.175605 v -0.191284 h 1.470692 v 0.191284 l -0.429605,0.175605 q -0.08153,0.03449 -0.153655,0.0878 -0.07212,0.05017 -0.150518,0.131704 l -1.153976,1.175927 1.489507,2.006915 q 0.03136,0.0439 0.06585,0.0878 0.03763,0.04077 0.07526,0.07526 0.03763,0.03449 0.0784,0.06272 0.04077,0.02509 0.08467,0.03763 l 0.326124,0.09721 v 0.191284 H 50.929829 V 95.24572 l 0.467235,-0.122296 -1.222964,-1.668248 -0.254,0.272815 v 1.216692 q 0,0.07212 0.0439,0.122296 0.04704,0.04704 0.106618,0.06272 l 0.388839,0.116024 v 0.191284 H 48.4839 Z"
           style="font-style:normal;font-variant:normal;font-weight:bold;font-stretch:normal;font-size:7.05556px;font-family:'Sitka Banner';-inkscape-font-specification:'Sitka Banner';fill:#f2f2f2;fill-opacity:1"
           id="path1100" />
        <path
           d="m 52.554152,95.245717 0.288494,-0.109753 q 0.13484,-0.05331 0.185013,-0.185012 l 1.244914,-3.179706 0.379432,-0.721235 h 0.379433 l 1.536544,3.900941 q 0.02509,0.06272 0.07526,0.112889 0.05331,0.05017 0.109753,0.07212 l 0.288494,0.109753 v 0.191284 h -1.887754 v -0.191284 l 0.54563,-0.134839 -0.470371,-1.194742 h -1.389161 l -0.454692,1.182199 0.533087,0.147382 v 0.191284 h -1.364075 z m 2.540002,-1.674519 -0.410791,-1.041087 -0.159926,-0.423334 -0.54563,1.464421 z"
           style="font-style:normal;font-variant:normal;font-weight:bold;font-stretch:normal;font-size:7.05556px;font-family:'Sitka Banner';-inkscape-font-specification:'Sitka Banner';fill:#f2f2f2;fill-opacity:1"
           id="path1102" />
        <path
           d="m 57.496165,95.248853 0.460963,-0.116025 q 0.06899,-0.01568 0.106618,-0.06585 0.04077,-0.05017 0.04077,-0.11916 v -3.487015 h -0.91879 q -0.06272,0 -0.09094,0.03136 -0.02822,0.03136 -0.0439,0.0784 l -0.257136,0.693013 h -0.210099 v -1.147704 h 3.941706 v 1.147704 h -0.210099 l -0.257136,-0.693013 q -0.01568,-0.04704 -0.0439,-0.0784 -0.02509,-0.03136 -0.08467,-0.03136 H 58.99508 v 3.487015 q 0,0.07212 0.0439,0.122296 0.04704,0.04704 0.106617,0.06272 l 0.460964,0.116025 v 0.188148 h -2.110397 z"
           style="font-style:normal;font-variant:normal;font-weight:bold;font-stretch:normal;font-size:7.05556px;font-family:'Sitka Banner';-inkscape-font-specification:'Sitka Banner';fill:#f2f2f2;fill-opacity:1"
           id="path1104" />
        <path
           d="m 59.967167,95.245717 0.288494,-0.109753 q 0.13484,-0.05331 0.185013,-0.185012 l 1.244914,-3.179706 0.379433,-0.721235 h 0.379432 l 1.536544,3.900941 q 0.02509,0.06272 0.07526,0.112889 0.05331,0.05017 0.109754,0.07212 l 0.288494,0.109753 v 0.191284 H 62.56675 v -0.191284 l 0.54563,-0.134839 -0.47037,-1.194742 h -1.389162 l -0.454691,1.182199 0.533086,0.147382 v 0.191284 h -1.364075 z m 2.540002,-1.674519 -0.41079,-1.041087 -0.159926,-0.423334 -0.54563,1.464421 z"
           style="font-style:normal;font-variant:normal;font-weight:bold;font-stretch:normal;font-size:7.05556px;font-family:'Sitka Banner';-inkscape-font-specification:'Sitka Banner';fill:#f2f2f2;fill-opacity:1"
           id="path1106" />
        <path
           d="m 65.915777,95.534211 q -0.188149,0 -0.373161,-0.02195 -0.185013,-0.02195 -0.363753,-0.05958 -0.175605,-0.03763 -0.348075,-0.08467 -0.172469,-0.05017 -0.338667,-0.103482 l -0.07526,-1.222964 h 0.210099 l 0.279087,0.624025 q 0.0094,0.01882 0.02509,0.0439 0.01882,0.02195 0.03763,0.04704 0.02195,0.02195 0.04077,0.04076 0.02195,0.01882 0.03763,0.02822 0.112889,0.07526 0.250864,0.134839 0.141111,0.05644 0.282223,0.09721 0.141111,0.04077 0.266543,0.06272 0.128568,0.02195 0.219506,0.02195 0.178741,0 0.319852,-0.05644 0.141112,-0.05958 0.238321,-0.15679 0.100346,-0.100346 0.153655,-0.232049 0.05331,-0.131704 0.05331,-0.279087 0,-0.122296 -0.03449,-0.219506 -0.03136,-0.100346 -0.100346,-0.181877 -0.06899,-0.08153 -0.172469,-0.147383 -0.100346,-0.06585 -0.241457,-0.122296 -0.119161,-0.04704 -0.238321,-0.08153 -0.116025,-0.03449 -0.235186,-0.06585 -0.116024,-0.03449 -0.232049,-0.06899 -0.116025,-0.03763 -0.23205,-0.08467 -0.191284,-0.0784 -0.338667,-0.197556 -0.147382,-0.119161 -0.247728,-0.266544 -0.09721,-0.150518 -0.150519,-0.322987 -0.05017,-0.17247 -0.05017,-0.360618 0,-0.178741 0.05331,-0.341803 0.05644,-0.166197 0.15679,-0.307308 0.100346,-0.141112 0.238321,-0.257136 0.141112,-0.119161 0.313581,-0.200692 0.172469,-0.08153 0.370025,-0.125432 0.200691,-0.04704 0.417062,-0.04704 0.191284,0 0.376296,0.01568 0.188149,0.01568 0.360618,0.0439 0.172469,0.02822 0.326123,0.06585 0.156791,0.03763 0.288494,0.08153 v 1.12889 h -0.210098 l -0.247729,-0.580124 q -0.01882,-0.0439 -0.05958,-0.08153 -0.04077,-0.04077 -0.07526,-0.06585 -0.07526,-0.05644 -0.185012,-0.09721 -0.106617,-0.04076 -0.222642,-0.06585 -0.112889,-0.02822 -0.222642,-0.04077 -0.106618,-0.01254 -0.178741,-0.01254 -0.15679,0 -0.285358,0.05017 -0.125433,0.05017 -0.213235,0.13484 -0.0878,0.08467 -0.13484,0.19442 -0.04704,0.106617 -0.04704,0.219506 0,0.122296 0.02822,0.228914 0.02822,0.106617 0.09407,0.197555 0.06585,0.0878 0.169333,0.159927 0.106617,0.06899 0.263408,0.125432 0.112889,0.04076 0.222642,0.07526 0.112889,0.03136 0.225778,0.06585 0.112889,0.03136 0.228913,0.07212 0.119161,0.03763 0.247729,0.09094 0.153654,0.06272 0.301037,0.166197 0.150519,0.100346 0.266544,0.244593 0.116024,0.141111 0.188148,0.32926 0.07212,0.185012 0.07212,0.413926 0,0.247728 -0.100345,0.492321 -0.100346,0.241457 -0.316717,0.432741 -0.213234,0.191284 -0.548765,0.310445 -0.335531,0.11916 -0.802766,0.11916 z"
           style="font-style:normal;font-variant:normal;font-weight:bold;font-stretch:normal;font-size:7.05556px;font-family:'Sitka Banner';-inkscape-font-specification:'Sitka Banner';fill:#f2f2f2;fill-opacity:1"
           id="path1108" />
      </g>
      <g
         aria-label="Arūnas Tarutis "
         transform="matrix(1.6374696,0,0,1.6374696,-50.576196,-124.71484)"
         id="text10-5-6"
         style="font-style:normal;font-weight:normal;font-size:10.5833px;line-height:1.25;font-family:sans-serif;white-space:pre;shape-inside:url(#rect12-6-6);fill:#f2f2f2;fill-opacity:1;stroke:none">
        <path
           d="M 31.003374,98.434392 31.407891,98.3168 q 0.09407,-0.02822 0.164629,-0.103482 0.07526,-0.07996 0.112889,-0.174036 l 1.867364,-4.882429 0.569147,-1.081848 h 0.183444 l 2.304807,5.964277 q 0.03763,0.09407 0.108185,0.174036 0.07526,0.07526 0.169333,0.103482 l 0.404517,0.117592 v 0.221073 H 35.00151 v -0.221073 l 0.818441,-0.155222 -0.780812,-2.031994 h -2.276585 l -0.729072,2.013179 0.799627,0.174037 v 0.221073 h -1.829735 z m 3.889951,-2.544696 -0.771405,-1.984957 -0.235185,-0.634997 h -0.0047 l -0.973664,2.619954 z"
           style="font-style:normal;font-variant:normal;font-weight:normal;font-stretch:normal;font-family:'Sitka Banner';-inkscape-font-specification:'Sitka Banner';fill:#f2f2f2;fill-opacity:1"
           id="path1111" />
        <path
           d="m 37.22634,98.443799 0.52211,-0.117592 q 0.09407,-0.02352 0.150518,-0.09407 0.06115,-0.07055 0.06115,-0.174036 v -3.090324 q 0,-0.122296 -0.06585,-0.211666 -0.06585,-0.08937 -0.225777,-0.145814 l -0.432739,-0.155222 v -0.127 l 1.462847,-0.324554 v 1.030108 0 q 0.112889,-0.183444 0.249296,-0.371592 0.136407,-0.192851 0.310443,-0.343369 0.174036,-0.155222 0.380999,-0.253999 0.211666,-0.09878 0.470369,-0.09878 0.131703,0 0.225777,0.01411 0.09407,0.0094 0.169333,0.02822 0.07526,0.01881 0.14111,0.04704 0.06585,0.02352 0.145815,0.05174 v 1.100663 h -0.239889 l -0.150518,-0.39511 q -0.01881,-0.04704 -0.07996,-0.07996 -0.06115,-0.03763 -0.141111,-0.05645 -0.07526,-0.02352 -0.164629,-0.03292 -0.08467,-0.01411 -0.155222,-0.01411 -0.169333,0 -0.319851,0.04233 -0.150518,0.04233 -0.286925,0.122296 -0.136407,0.07996 -0.263406,0.202258 -0.122296,0.122296 -0.239888,0.282222 v 2.77988 q 0,0.108184 0.05644,0.17874 0.06115,0.07055 0.155222,0.08937 l 0.606775,0.117592 v 0.211666 H 37.22634 Z"
           style="font-style:normal;font-variant:normal;font-weight:normal;font-stretch:normal;font-family:'Sitka Banner';-inkscape-font-specification:'Sitka Banner';fill:#f2f2f2;fill-opacity:1"
           id="path1113" />
        <path
           d="m 41.755989,94.958366 q 0,-0.122296 -0.06585,-0.206963 -0.06585,-0.08467 -0.225777,-0.14111 l -0.432739,-0.155222 v -0.127 l 1.514588,-0.324554 v 2.831621 q 0,0.315147 0.03293,0.569146 0.03293,0.253999 0.136407,0.437443 0.103481,0.17874 0.301036,0.277518 0.197555,0.09407 0.52211,0.09407 0.14111,0 0.291629,-0.02352 0.155221,-0.02822 0.301036,-0.08467 0.150518,-0.05645 0.282221,-0.145815 0.136407,-0.09407 0.239888,-0.230481 v -2.770472 q 0,-0.122296 -0.06585,-0.188148 -0.06115,-0.06585 -0.221073,-0.122296 l -0.442147,-0.155221 v -0.127 l 1.519292,-0.362184 v 3.777062 q 0,0.122296 0.06115,0.206962 0.06585,0.08467 0.23048,0.136407 l 0.43274,0.136407 v 0.127 l -1.396996,0.362184 h -0.09878 v -0.799627 0 q -0.17874,0.253999 -0.357481,0.413924 -0.174036,0.155222 -0.35748,0.244592 -0.183444,0.08467 -0.371591,0.112889 -0.188148,0.02822 -0.385703,0.02822 -0.30574,0 -0.57385,-0.09407 -0.263406,-0.08937 -0.456258,-0.282221 -0.192851,-0.197555 -0.305739,-0.503295 -0.108185,-0.30574 -0.108185,-0.738479 z m 0.26811,-2.403585 h 2.935102 v 0.517406 h -2.935102 z"
           style="font-style:normal;font-variant:normal;font-weight:normal;font-stretch:normal;font-family:'Sitka Banner';-inkscape-font-specification:'Sitka Banner';fill:#f2f2f2;fill-opacity:1"
           id="path1115" />
        <path
           d="m 46.454956,98.443799 0.512702,-0.117592 q 0.09407,-0.02352 0.150518,-0.09407 0.06115,-0.07055 0.06115,-0.174036 V 94.95837 q 0,-0.122296 -0.06585,-0.206963 -0.06585,-0.08467 -0.225777,-0.14111 L 46.45496,94.455075 v -0.127 l 1.491069,-0.324554 v 0.761998 0 q 0.17874,-0.249296 0.35748,-0.404518 0.183444,-0.159925 0.366888,-0.244592 0.183444,-0.08937 0.371591,-0.117592 0.188148,-0.03293 0.380999,-0.03293 0.30574,0 0.57385,0.09407 0.26811,0.08937 0.465665,0.286925 0.197555,0.192851 0.310444,0.503295 0.112888,0.30574 0.112888,0.733775 v 2.455326 q 0,0.117592 0.06115,0.192851 0.06585,0.07055 0.150518,0.09407 l 0.451554,0.117592 v 0.211666 h -2.173104 v -0.211666 l 0.517406,-0.117592 q 0.08937,-0.02352 0.145814,-0.09407 0.05644,-0.07526 0.05644,-0.192851 v -2.158993 q 0,-0.315147 -0.03763,-0.569147 -0.03293,-0.258702 -0.145814,-0.437443 -0.108185,-0.183443 -0.30574,-0.282221 -0.197555,-0.09878 -0.522109,-0.09878 -0.141111,0 -0.296333,0.02822 -0.150518,0.02822 -0.301036,0.08937 -0.145814,0.05644 -0.282221,0.150518 -0.131703,0.09407 -0.235185,0.225777 v 3.071509 q 0,0.108184 0.05644,0.17874 0.06115,0.06585 0.155221,0.08937 l 0.451554,0.117592 v 0.211666 h -2.177807 z"
           style="font-style:normal;font-variant:normal;font-weight:normal;font-stretch:normal;font-family:'Sitka Banner';-inkscape-font-specification:'Sitka Banner';fill:#f2f2f2;fill-opacity:1"
           id="path1117" />
        <path
           d="m 54.629958,97.982838 q -0.164629,0.249295 -0.362184,0.399813 -0.192851,0.150518 -0.39511,0.235185 -0.197555,0.07996 -0.39511,0.103481 -0.192851,0.02822 -0.35748,0.02822 -0.268111,0 -0.489184,-0.09878 -0.21637,-0.09878 -0.376295,-0.263406 -0.155222,-0.164629 -0.244592,-0.385703 -0.08467,-0.221073 -0.08467,-0.465665 0,-0.286925 0.09878,-0.512702 0.103481,-0.225777 0.272814,-0.39511 0.174037,-0.174036 0.39511,-0.291628 0.221073,-0.122296 0.456258,-0.197555 0.235184,-0.07526 0.470369,-0.108185 0.235184,-0.03763 0.437443,-0.03763 0.04233,0 0.122296,0.0094 0.07996,0.0047 0.164629,0.01411 0.08937,0.0047 0.169333,0.0094 0.08467,0.0047 0.131703,0.0047 l 0.0047,-0.846664 q 0,-0.225777 -0.04233,-0.376295 -0.03763,-0.150518 -0.122296,-0.235185 -0.07996,-0.08937 -0.206962,-0.122296 -0.126999,-0.03763 -0.30574,-0.03763 -0.23048,0 -0.451554,0.07996 -0.216369,0.07526 -0.409221,0.188147 -0.192851,0.112889 -0.35748,0.239888 -0.164629,0.122296 -0.282221,0.211666 h -0.103481 l -0.145815,-0.743183 q 0.136407,-0.07526 0.301036,-0.150518 0.169333,-0.07996 0.362184,-0.136407 0.192852,-0.06115 0.409221,-0.09878 0.221074,-0.03763 0.460962,-0.03763 0.286925,0 0.587961,0.07996 0.301036,0.07526 0.545628,0.249296 0.244592,0.174036 0.39511,0.460961 0.155221,0.286925 0.150518,0.70085 l -0.02822,2.464733 q 0,0.07055 0.02352,0.126999 0.02352,0.05174 0.07055,0.09407 0.05174,0.03763 0.122296,0.06115 0.07526,0.01881 0.174037,0.01881 0.02352,0 0.07526,-0.0094 0.05174,-0.0094 0.112888,-0.01881 0.06585,-0.01411 0.127,-0.02822 0.06585,-0.01881 0.112888,-0.03292 h 0.04704 v 0.225777 q -0.06585,0.05174 -0.174036,0.122296 -0.103481,0.06585 -0.230481,0.126999 -0.122296,0.05644 -0.258703,0.09878 -0.131703,0.04233 -0.253999,0.04233 -0.17874,0 -0.315147,-0.03763 -0.136407,-0.03763 -0.230481,-0.122296 -0.08937,-0.08937 -0.136407,-0.235184 -0.04233,-0.150518 -0.04233,-0.371591 z m 0.01411,-1.712143 q -0.428036,0 -0.776109,0.06115 -0.343369,0.06115 -0.587961,0.192851 -0.239888,0.131703 -0.371591,0.338666 -0.131704,0.206962 -0.131704,0.493887 0,0.244592 0.07056,0.413925 0.07526,0.164629 0.188147,0.26811 0.117593,0.103481 0.258703,0.150518 0.145815,0.04233 0.282222,0.04233 0.131703,0 0.277517,-0.02822 0.150518,-0.02822 0.291629,-0.08467 0.141111,-0.06115 0.26811,-0.155222 0.127,-0.09407 0.21637,-0.225777 z"
           style="font-style:normal;font-variant:normal;font-weight:normal;font-stretch:normal;font-family:'Sitka Banner';-inkscape-font-specification:'Sitka Banner';fill:#f2f2f2;fill-opacity:1"
           id="path1119" />
        <path
           d="m 56.539651,97.230247 h 0.239888 l 0.17874,0.559739 q 0.03763,0.117593 0.145815,0.197555 0.108184,0.07996 0.202258,0.131704 0.07996,0.04233 0.192851,0.08937 0.117593,0.04704 0.249296,0.08937 0.131703,0.04233 0.26811,0.07055 0.141111,0.02352 0.26811,0.02352 0.174037,0 0.338666,-0.03763 0.164629,-0.04233 0.291629,-0.136407 0.126999,-0.09407 0.202258,-0.244592 0.07996,-0.150518 0.07996,-0.376295 0,-0.188147 -0.07055,-0.315147 -0.06585,-0.131703 -0.183444,-0.21637 -0.117592,-0.08937 -0.272814,-0.145814 -0.155222,-0.05644 -0.329258,-0.103481 -0.239888,-0.06585 -0.465666,-0.127 -0.221073,-0.06115 -0.404517,-0.122296 -0.192851,-0.06115 -0.352776,-0.174036 -0.155222,-0.112889 -0.272814,-0.272814 -0.112889,-0.159926 -0.178741,-0.35748 -0.06115,-0.197555 -0.06115,-0.423332 0,-0.30574 0.131703,-0.559739 0.136407,-0.254 0.366888,-0.43274 0.23048,-0.183444 0.531516,-0.282221 0.30574,-0.09878 0.644406,-0.09878 0.197555,0 0.362184,0.01411 0.164629,0.01411 0.315147,0.04233 0.155222,0.02352 0.301036,0.06115 0.150518,0.03293 0.315147,0.07526 l 0.07526,1.260588 h -0.258703 l -0.206962,-0.564442 q -0.03763,-0.103482 -0.122296,-0.178741 -0.08467,-0.07996 -0.183444,-0.131703 -0.159925,-0.07996 -0.362184,-0.14111 -0.197555,-0.06115 -0.413924,-0.06115 -0.150519,0 -0.296333,0.03763 -0.145814,0.03763 -0.263406,0.122296 -0.117593,0.08467 -0.192852,0.225777 -0.07056,0.136407 -0.07056,0.333962 0,0.197555 0.05644,0.333962 0.06115,0.136407 0.155222,0.225777 0.09878,0.08937 0.21637,0.145814 0.117592,0.05644 0.239888,0.09407 0.09878,0.03293 0.211666,0.06585 0.112888,0.03293 0.216369,0.06585 0.108185,0.02822 0.197555,0.05644 0.09407,0.02352 0.155222,0.04233 0.239888,0.07055 0.446851,0.169333 0.206962,0.09878 0.35748,0.239888 0.155222,0.14111 0.239888,0.333962 0.08937,0.188147 0.08937,0.442146 0,0.39511 -0.145814,0.682035 -0.145815,0.282222 -0.39511,0.465665 -0.244592,0.183444 -0.578554,0.268111 -0.329258,0.08937 -0.700849,0.08937 -0.239889,0 -0.446851,-0.02822 -0.202258,-0.02822 -0.385702,-0.07526 -0.17874,-0.04704 -0.34337,-0.09878 -0.164629,-0.05644 -0.324554,-0.108185 z"
           style="font-style:normal;font-variant:normal;font-weight:normal;font-stretch:normal;font-family:'Sitka Banner';-inkscape-font-specification:'Sitka Banner';fill:#f2f2f2;fill-opacity:1"
           id="path1121" />
        <path
           d="m 64.051427,98.434392 0.691443,-0.127 q 0.09407,-0.01881 0.155221,-0.09407 0.06585,-0.07996 0.06585,-0.183443 v -5.503316 h -1.500477 q -0.09407,0 -0.136407,0.04704 -0.04233,0.04704 -0.06585,0.117592 l -0.338666,1.039515 h -0.249295 v -1.556921 h 5.442167 v 1.556921 h -0.249295 l -0.338666,-1.039515 q -0.02352,-0.07056 -0.06585,-0.117592 -0.03763,-0.04704 -0.127,-0.04704 h -1.523995 v 5.503316 q 0,0.108184 0.06585,0.183443 0.06585,0.07526 0.159925,0.09407 l 0.691442,0.127 v 0.221073 h -2.676399 z"
           style="font-style:normal;font-variant:normal;font-weight:normal;font-stretch:normal;font-family:'Sitka Banner';-inkscape-font-specification:'Sitka Banner';fill:#f2f2f2;fill-opacity:1"
           id="path1123" />
        <path
           d="m 70.641265,97.982838 q -0.16463,0.249295 -0.362184,0.399813 -0.192852,0.150518 -0.39511,0.235185 -0.197555,0.07996 -0.39511,0.103481 -0.192851,0.02822 -0.35748,0.02822 -0.268111,0 -0.489184,-0.09878 -0.21637,-0.09878 -0.376295,-0.263406 -0.155222,-0.164629 -0.244592,-0.385703 -0.08467,-0.221073 -0.08467,-0.465665 0,-0.286925 0.09878,-0.512702 0.103481,-0.225777 0.272814,-0.39511 0.174036,-0.174036 0.39511,-0.291628 0.221073,-0.122296 0.456258,-0.197555 0.235184,-0.07526 0.470369,-0.108185 0.235184,-0.03763 0.437443,-0.03763 0.04233,0 0.122295,0.0094 0.07996,0.0047 0.16463,0.01411 0.08937,0.0047 0.169332,0.0094 0.08467,0.0047 0.131704,0.0047 l 0.0047,-0.846664 q 0,-0.225777 -0.04233,-0.376295 -0.03763,-0.150518 -0.122296,-0.235185 -0.07996,-0.08937 -0.206962,-0.122296 -0.127,-0.03763 -0.30574,-0.03763 -0.230481,0 -0.451554,0.07996 -0.21637,0.07526 -0.409221,0.188147 -0.192851,0.112889 -0.35748,0.239888 -0.164629,0.122296 -0.282222,0.211666 h -0.10348 l -0.145814,-0.743183 q 0.136407,-0.07526 0.301036,-0.150518 0.169333,-0.07996 0.362184,-0.136407 0.192851,-0.06115 0.409221,-0.09878 0.221073,-0.03763 0.460961,-0.03763 0.286926,0 0.587962,0.07996 0.301036,0.07526 0.545627,0.249296 0.244592,0.174036 0.39511,0.460961 0.155222,0.286925 0.150518,0.70085 l -0.02822,2.464733 q 0,0.07055 0.02352,0.126999 0.02352,0.05174 0.07055,0.09407 0.05174,0.03763 0.122296,0.06115 0.07526,0.01881 0.174036,0.01881 0.02352,0 0.07526,-0.0094 0.05174,-0.0094 0.112889,-0.01881 0.06585,-0.01411 0.127,-0.02822 0.06585,-0.01881 0.112888,-0.03292 h 0.04704 v 0.225777 q -0.06585,0.05174 -0.174037,0.122296 -0.103481,0.06585 -0.23048,0.126999 -0.122296,0.05644 -0.258703,0.09878 -0.131703,0.04233 -0.253999,0.04233 -0.178741,0 -0.315147,-0.03763 -0.136407,-0.03763 -0.230481,-0.122296 -0.08937,-0.08937 -0.136407,-0.235184 -0.04233,-0.150518 -0.04233,-0.371591 z m 0.01411,-1.712143 q -0.428036,0 -0.776109,0.06115 -0.343369,0.06115 -0.587961,0.192851 -0.239888,0.131703 -0.371591,0.338666 -0.131704,0.206962 -0.131704,0.493887 0,0.244592 0.07056,0.413925 0.07526,0.164629 0.188147,0.26811 0.117592,0.103481 0.258703,0.150518 0.145814,0.04233 0.282221,0.04233 0.131704,0 0.277518,-0.02822 0.150518,-0.02822 0.291629,-0.08467 0.14111,-0.06115 0.26811,-0.155222 0.127,-0.09407 0.21637,-0.225777 z"
           style="font-style:normal;font-variant:normal;font-weight:normal;font-stretch:normal;font-family:'Sitka Banner';-inkscape-font-specification:'Sitka Banner';fill:#f2f2f2;fill-opacity:1"
           id="path1125" />
        <path
           d="m 72.395736,98.443799 0.522109,-0.117592 q 0.09407,-0.02352 0.150518,-0.09407 0.06115,-0.07055 0.06115,-0.174036 v -3.090324 q 0,-0.122296 -0.06585,-0.211666 -0.06585,-0.08937 -0.225777,-0.145814 l -0.43274,-0.155222 v -0.127 l 1.462847,-0.324554 v 1.030108 0 q 0.112889,-0.183444 0.249296,-0.371592 0.136407,-0.192851 0.310443,-0.343369 0.174037,-0.155222 0.380999,-0.253999 0.211666,-0.09878 0.470369,-0.09878 0.131703,0 0.225777,0.01411 0.09407,0.0094 0.169333,0.02822 0.07526,0.01881 0.141111,0.04704 0.06585,0.02352 0.145814,0.05174 v 1.100663 h -0.239888 l -0.150518,-0.39511 q -0.01881,-0.04704 -0.07996,-0.07996 -0.06115,-0.03763 -0.141111,-0.05645 -0.07526,-0.02352 -0.164629,-0.03292 -0.08467,-0.01411 -0.155221,-0.01411 -0.169333,0 -0.319851,0.04233 -0.150518,0.04233 -0.286925,0.122296 -0.136407,0.07996 -0.263407,0.202258 -0.122296,0.122296 -0.239888,0.282222 v 2.77988 q 0,0.108184 0.05644,0.17874 0.06115,0.07055 0.155222,0.08937 l 0.606776,0.117592 v 0.211666 h -2.342437 z"
           style="font-style:normal;font-variant:normal;font-weight:normal;font-stretch:normal;font-family:'Sitka Banner';-inkscape-font-specification:'Sitka Banner';fill:#f2f2f2;fill-opacity:1"
           id="path1127" />
        <path
           d="m 76.925385,94.958366 q 0,-0.122296 -0.06585,-0.206963 -0.06585,-0.08467 -0.225777,-0.14111 l -0.43274,-0.155222 v -0.127 l 1.514588,-0.324554 v 2.831621 q 0,0.315147 0.03293,0.569146 0.03293,0.253999 0.136407,0.437443 0.103481,0.17874 0.301036,0.277518 0.197555,0.09407 0.522109,0.09407 0.141111,0 0.291629,-0.02352 0.155222,-0.02822 0.301036,-0.08467 0.150518,-0.05645 0.282221,-0.145815 0.136407,-0.09407 0.239888,-0.230481 v -2.770472 q 0,-0.122296 -0.06585,-0.188148 -0.06115,-0.06585 -0.221074,-0.122296 l -0.442146,-0.155221 v -0.127 l 1.519291,-0.362184 v 3.777062 q 0,0.122296 0.06115,0.206962 0.06585,0.08467 0.230481,0.136407 l 0.432739,0.136407 v 0.127 l -1.396995,0.362184 h -0.09878 v -0.799627 0 q -0.17874,0.253999 -0.35748,0.413924 -0.174037,0.155222 -0.35748,0.244592 -0.183444,0.08467 -0.371592,0.112889 -0.188147,0.02822 -0.385702,0.02822 -0.30574,0 -0.57385,-0.09407 -0.263407,-0.08937 -0.456258,-0.282221 -0.192851,-0.197555 -0.30574,-0.503295 -0.108185,-0.30574 -0.108185,-0.738479 z"
           style="font-style:normal;font-variant:normal;font-weight:normal;font-stretch:normal;font-family:'Sitka Banner';-inkscape-font-specification:'Sitka Banner';fill:#f2f2f2;fill-opacity:1"
           id="path1129" />
        <path
           d="m 82.193497,94.502108 h -0.733775 v -0.230481 q 0.183444,-0.04704 0.329258,-0.08467 0.145815,-0.04233 0.249296,-0.112889 0.108185,-0.07055 0.169332,-0.192851 0.06115,-0.122296 0.07526,-0.333962 l 0.03293,-0.578554 0.667924,-0.14111 v 1.298218 h 1.608662 l -0.136407,0.376295 h -1.472255 v 3.212619 q 0,0.141111 0.09407,0.239888 0.09407,0.09407 0.225777,0.159926 0.136407,0.06115 0.282221,0.08937 0.150518,0.02822 0.263407,0.02822 0.07526,0 0.169333,-0.01411 0.09407,-0.01882 0.183443,-0.03763 0.08937,-0.02352 0.159926,-0.04704 0.07526,-0.02822 0.112888,-0.04704 h 0.04704 v 0.249295 q -0.06585,0.04233 -0.183444,0.112889 -0.112888,0.06585 -0.26811,0.131703 -0.150518,0.06585 -0.338665,0.112889 -0.183444,0.04704 -0.390407,0.04704 -0.249295,0 -0.460961,-0.06115 -0.206962,-0.06115 -0.362184,-0.174037 -0.150518,-0.117592 -0.239888,-0.286925 -0.08467,-0.174036 -0.08467,-0.399813 z"
           style="font-style:normal;font-variant:normal;font-weight:normal;font-stretch:normal;font-family:'Sitka Banner';-inkscape-font-specification:'Sitka Banner';fill:#f2f2f2;fill-opacity:1"
           id="path1131" />
        <path
           d="m 85.791816,92.893446 q -0.117592,0 -0.221073,-0.04233 -0.103481,-0.04704 -0.178741,-0.122296 -0.07526,-0.07526 -0.122295,-0.17874 -0.04233,-0.103481 -0.04233,-0.225777 0,-0.117592 0.04233,-0.221073 0.04704,-0.103481 0.122295,-0.17874 0.07526,-0.07526 0.178741,-0.117593 0.103481,-0.04704 0.221073,-0.04704 0.117592,0 0.221073,0.04704 0.108185,0.04233 0.188148,0.117593 0.07996,0.07526 0.122296,0.17874 0.04704,0.103481 0.04704,0.221073 0,0.122296 -0.04704,0.225777 -0.04233,0.103481 -0.122296,0.17874 -0.07996,0.07526 -0.188148,0.122296 -0.103481,0.04233 -0.221073,0.04233 z m -1.086552,5.550353 0.531517,-0.117592 q 0.09407,-0.02352 0.150518,-0.09407 0.06115,-0.07055 0.06115,-0.174036 V 94.95837 q 0,-0.122296 -0.06585,-0.206963 -0.06585,-0.08467 -0.225777,-0.14111 l -0.432739,-0.155222 v -0.127 l 1.514587,-0.324554 v 4.05458 q 0,0.108184 0.05645,0.17874 0.06115,0.06585 0.155221,0.08937 l 0.489184,0.117592 v 0.211666 h -2.234252 z"
           style="font-style:normal;font-variant:normal;font-weight:normal;font-stretch:normal;font-family:'Sitka Banner';-inkscape-font-specification:'Sitka Banner';fill:#f2f2f2;fill-opacity:1"
           id="path1133" />
        <path
           d="m 87.395772,97.230247 h 0.239888 l 0.17874,0.559739 q 0.03763,0.117593 0.145815,0.197555 0.108184,0.07996 0.202258,0.131704 0.07996,0.04233 0.192851,0.08937 0.117593,0.04704 0.249296,0.08937 0.131703,0.04233 0.26811,0.07055 0.141111,0.02352 0.26811,0.02352 0.174037,0 0.338666,-0.03763 0.164629,-0.04233 0.291629,-0.136407 0.126999,-0.09407 0.202258,-0.244592 0.07996,-0.150518 0.07996,-0.376295 0,-0.188147 -0.07055,-0.315147 -0.06585,-0.131703 -0.183444,-0.21637 -0.117592,-0.08937 -0.272814,-0.145814 -0.155222,-0.05644 -0.329258,-0.103481 -0.239888,-0.06585 -0.465665,-0.127 -0.221074,-0.06115 -0.404518,-0.122296 -0.192851,-0.06115 -0.352776,-0.174036 -0.155222,-0.112889 -0.272814,-0.272814 -0.112889,-0.159926 -0.17874,-0.35748 -0.06115,-0.197555 -0.06115,-0.423332 0,-0.30574 0.131703,-0.559739 0.136407,-0.254 0.366888,-0.43274 0.23048,-0.183444 0.531516,-0.282221 0.30574,-0.09878 0.644406,-0.09878 0.197555,0 0.362184,0.01411 0.164629,0.01411 0.315147,0.04233 0.155222,0.02352 0.301036,0.06115 0.150518,0.03293 0.315147,0.07526 l 0.07526,1.260588 h -0.258703 l -0.206962,-0.564442 q -0.03763,-0.103482 -0.122296,-0.178741 -0.08467,-0.07996 -0.183444,-0.131703 -0.159925,-0.07996 -0.362184,-0.14111 -0.197555,-0.06115 -0.413924,-0.06115 -0.150518,0 -0.296333,0.03763 -0.145814,0.03763 -0.263406,0.122296 -0.117593,0.08467 -0.192852,0.225777 -0.07055,0.136407 -0.07055,0.333962 0,0.197555 0.05644,0.333962 0.06115,0.136407 0.155222,0.225777 0.09878,0.08937 0.21637,0.145814 0.117592,0.05644 0.239888,0.09407 0.09878,0.03293 0.211666,0.06585 0.112888,0.03293 0.21637,0.06585 0.108184,0.02822 0.197554,0.05644 0.09407,0.02352 0.155222,0.04233 0.239888,0.07055 0.446851,0.169333 0.206962,0.09878 0.35748,0.239888 0.155222,0.14111 0.239888,0.333962 0.08937,0.188147 0.08937,0.442146 0,0.39511 -0.145814,0.682035 -0.145815,0.282222 -0.39511,0.465665 -0.244592,0.183444 -0.578554,0.268111 -0.329258,0.08937 -0.700849,0.08937 -0.239888,0 -0.446851,-0.02822 -0.202258,-0.02822 -0.385702,-0.07526 -0.17874,-0.04704 -0.34337,-0.09878 -0.164629,-0.05644 -0.324554,-0.108185 z"
           style="font-style:normal;font-variant:normal;font-weight:normal;font-stretch:normal;font-family:'Sitka Banner';-inkscape-font-specification:'Sitka Banner';fill:#f2f2f2;fill-opacity:1"
           id="path1135" />
      </g>
      <path
         style="color:#000000;font-style:normal;font-variant:normal;font-weight:normal;font-stretch:normal;font-size:medium;line-height:normal;font-family:sans-serif;font-variant-ligatures:normal;font-variant-position:normal;font-variant-caps:normal;font-variant-numeric:normal;font-variant-alternates:normal;font-variant-east-asian:normal;font-feature-settings:normal;font-variation-settings:normal;text-indent:0;text-align:start;text-decoration:none;text-decoration-line:none;text-decoration-style:solid;text-decoration-color:#000000;letter-spacing:normal;word-spacing:normal;text-transform:none;writing-mode:lr-tb;direction:ltr;text-orientation:mixed;dominant-baseline:auto;baseline-shift:baseline;text-anchor:start;white-space:normal;shape-padding:0;shape-margin:0;inline-size:0;clip-rule:nonzero;display:inline;overflow:visible;visibility:visible;isolation:auto;mix-blend-mode:normal;color-interpolation:sRGB;color-interpolation-filters:linearRGB;solid-color:#000000;solid-opacity:1;vector-effect:none;fill:#f2f2f2;fill-opacity:1;fill-rule:nonzero;stroke:none;stroke-width:2.58909px;stroke-linecap:butt;stroke-linejoin:miter;stroke-miterlimit:4;stroke-dasharray:none;stroke-dashoffset:0;stroke-opacity:1;color-rendering:auto;image-rendering:auto;shape-rendering:auto;text-rendering:auto;enable-background:accumulate;stop-color:#000000"
         d="M 0.00327464,46.151316 -3.0168481e-7,48.741842 11.046524,48.758217 l 0.745176,0.0033 0.0033,-2.590526 h -0.745177 z"
         id="path1140" />
      <path
         style="color:#000000;font-style:normal;font-variant:normal;font-weight:normal;font-stretch:normal;font-size:medium;line-height:normal;font-family:sans-serif;font-variant-ligatures:normal;font-variant-position:normal;font-variant-caps:normal;font-variant-numeric:normal;font-variant-alternates:normal;font-variant-east-asian:normal;font-feature-settings:normal;font-variation-settings:normal;text-indent:0;text-align:start;text-decoration:none;text-decoration-line:none;text-decoration-style:solid;text-decoration-color:#000000;letter-spacing:normal;word-spacing:normal;text-transform:none;writing-mode:lr-tb;direction:ltr;text-orientation:mixed;dominant-baseline:auto;baseline-shift:baseline;text-anchor:start;white-space:normal;shape-padding:0;shape-margin:0;inline-size:0;clip-rule:nonzero;display:inline;overflow:visible;visibility:visible;isolation:auto;mix-blend-mode:normal;color-interpolation:sRGB;color-interpolation-filters:linearRGB;solid-color:#000000;solid-opacity:1;vector-effect:none;fill:#f2f2f2;fill-opacity:1;fill-rule:nonzero;stroke:none;stroke-width:2.58909px;stroke-linecap:butt;stroke-linejoin:miter;stroke-miterlimit:4;stroke-dasharray:none;stroke-dashoffset:0;stroke-opacity:1;color-rendering:auto;image-rendering:auto;shape-rendering:auto;text-rendering:auto;enable-background:accumulate;stop-color:#000000"
         d="m 86.386195,46.167298 -0.0066,2.587333 11.046534,0.01916 h 0.745163 l 0.0033,-2.587333 -0.745179,-0.0033 z"
         id="path1144" />
    </g>
    <path
       d="M 49.111795,0.02123189 C 48.875426,0.0842581 48.639074,0.2598456 48.522011,0.45794503 48.231623,0.95317806 48.476981,1.633008 49.010501,1.8108437 l 0.123793,0.042771 -0.0065,0.3691741 c -0.0049,0.2025959 -0.01146,0.3714321 -0.01637,0.3759303 -0.0049,0.00426 -0.465974,-0.083282 -1.02874,-0.1980946 C 47.522107,2.2880646 45.559158,1.8918837 43.720034,1.5227015 41.880893,1.1535274 40.125051,0.80010577 39.81439,0.73707793 c -0.308384,-0.0630426 -0.569512,-0.114803 -0.578518,-0.114803 -0.0098,0 -0.01801,-0.0247749 -0.01801,-0.0562635 0,-0.17108774 -0.193598,-0.34891694 -0.380433,-0.34891694 -0.119372,0 -0.254381,0.0675292 -0.319667,0.15981703 -0.05174,0.074292 -0.08105,0.2476198 -0.05633,0.34441554 0.01801,0.074292 0.117079,0.18684183 0.200344,0.22961417 0.08548,0.0450304 0.263371,0.0450304 0.348912,0 0.07647,-0.040511 0.184592,-0.15983341 0.184592,-0.20710552 0,-0.0179958 0.01146,-0.031554 0.02702,-0.031554 0.04044,0 0.454708,0.11706271 0.47498,0.1350585 0.0082,0.006714 -0.80814,2.48069929 -1.814381,5.49489769 l -1.832378,5.4791371 -0.679828,0.0066 c -0.565026,0.0049 -0.677569,0.01146 -0.677569,0.03602 0,0.07647 0.265614,0.380417 0.495236,0.562766 0.718096,0.576274 1.719818,0.931949 3.083978,1.098529 0.371427,0.04503 0.522255,0.04945 1.40693,0.04945 0.814887,0.0016 1.051256,-0.0049 1.328135,-0.03832 1.377669,-0.16658 2.309619,-0.501999 2.953422,-1.067025 0.193598,-0.171066 0.456969,-0.524497 0.456969,-0.614542 0,-0.0131 -0.150811,-0.0226 -0.450222,-0.0226 -0.247602,0 -0.450206,-0.0016 -0.450206,-0.0065 0,-0.0049 -0.16658,-0.504242 -0.369184,-1.109795 C 42.749737,9.5296441 40.910613,4.0504989 40.2533,2.0898059 40.032683,1.4324912 39.854854,0.89222774 39.8616,0.89222774 c 0.0065,0 0.321911,0.0923042 0.702344,0.20484746 0.637057,0.1868435 1.224582,0.3601762 2.818347,0.8306556 0.328673,0.096791 1.118801,0.3286532 1.755859,0.5177466 0.637057,0.1890884 1.427185,0.4209541 1.755842,0.5177482 0.328657,0.096791 0.945459,0.2791345 1.373166,0.4051935 0.42769,0.1260688 0.778862,0.2318641 0.783365,0.2363671 0.0049,0.00426 -0.02931,0.6753219 -0.07205,1.4902152 -0.04503,0.8148933 -0.101359,1.8413985 -0.126085,2.2803549 -0.02473,0.4389565 -0.06533,1.1795676 -0.09006,1.643299 -0.02473,0.463715 -0.06534,1.2043257 -0.09006,1.6432827 -0.02473,0.438956 -0.08548,1.548751 -0.135092,2.464932 -0.04962,0.916197 -0.110365,2.030479 -0.135091,2.476198 -0.02473,0.445719 -0.06976,1.276358 -0.101359,1.845887 -0.0316,0.569528 -0.07647,1.409173 -0.10136,1.868402 -0.02473,0.456968 -0.06075,1.091766 -0.07876,1.406914 -0.01801,0.315163 -0.04274,0.781138 -0.05633,1.035503 -0.0131,0.25438 -0.04044,0.522254 -0.05846,0.59653 -0.08335,0.337679 -0.389439,0.612299 -0.844164,0.760883 -0.213854,0.07205 -0.400689,0.101359 -1.52848,0.240855 -1.857136,0.231866 -2.352389,0.355675 -2.899402,0.724859 -0.288129,0.195841 -0.547013,0.48397 -0.646063,0.722582 l -0.03373,0.08335 h 7.203458 7.203474 L 56.43618,24.8257 c -0.112494,-0.297152 -0.43221,-0.625808 -0.823892,-0.850911 -0.49075,-0.27914 -1.053516,-0.407452 -2.651784,-0.605553 -0.456969,-0.05633 -0.967958,-0.123792 -1.132294,-0.148518 -0.522238,-0.07876 -0.81939,-0.202588 -1.064765,-0.447963 -0.236352,-0.236369 -0.290389,-0.393942 -0.290389,-0.86442 0,-0.290372 -0.02931,-0.830639 -0.135091,-2.590984 -0.14639,-2.426665 -0.227362,-3.860613 -0.326413,-5.76278 -0.03832,-0.736108 -0.08777,-1.661295 -0.126085,-2.296109 -0.05404,-0.940939 -0.420961,-7.5636407 -0.416458,-7.5681438 0,-0.00246 0.504243,0.09905 1.116542,0.2228596 1.179567,0.2363622 3.664755,0.7361048 6.255756,1.2583545 0.859917,0.1710828 1.566763,0.3174038 1.57125,0.3219068 0.0065,0.00671 -2.22632,6.7149849 -3.329336,9.9970629 l -0.348928,1.035503 -0.49748,0.0065 c -0.274636,0.0016 -0.499756,0.0131 -0.499756,0.02473 0,0.01146 0.04503,0.08105 0.10136,0.153103 0.337662,0.450206 1.012988,0.886919 1.767091,1.141284 0.902688,0.303914 1.879668,0.441216 3.140274,0.441216 2.118264,0 3.655749,-0.443459 4.425622,-1.278618 0.07876,-0.08548 0.175586,-0.211594 0.216097,-0.27688 0.130506,-0.2206 0.186851,-0.200344 -0.535747,-0.200344 H 62.212436 L 61.924307,15.674881 C 61.76449,15.202144 61.158937,13.396784 60.5759,11.663441 58.646732,5.9119256 58.536432,5.5855157 58.518419,5.542745 c -0.0131,-0.038251 -0.0082,-0.040511 0.04274,-0.029294 0.06075,0.01572 0.508746,0.1057969 0.524498,0.1057969 0.0049,0 0.0098,0.036008 0.0098,0.078795 0,0.090045 0.04961,0.2251013 0.108073,0.2881439 0.06533,0.074341 0.16658,0.1124942 0.290389,0.1103655 0.407452,-0.00491 0.529001,-0.5402471 0.162109,-0.7248374 -0.157524,-0.081038 -0.312904,-0.054004 -0.452465,0.083298 L 59.120239,5.536051 58.730816,5.4235077 C 58.516962,5.3604815 57.992448,5.2051512 57.564757,5.0790873 57.13705,4.9530349 56.520248,4.7706895 56.191592,4.6738938 55.862935,4.577103 55.250636,4.3970124 54.829692,4.273205 52.803716,3.6744167 52.000079,3.438048 51.295492,3.2286975 50.874531,3.1048884 50.282504,2.9315574 49.980849,2.8415113 49.474364,2.6929437 49.429333,2.6749315 49.415824,2.6231596 c -0.0098,-0.029294 -0.0226,-0.2138535 -0.03144,-0.4051984 L 49.366374,1.8667928 49.48116,1.8554938 C 49.636392,1.8397738 49.859334,1.724922 49.994409,1.5921134 50.471633,1.114886 50.296047,0.29999268 49.663492,0.05687593 49.510389,-0.00163086 49.262804,-0.01741607 49.111976,0.02086797 Z M 39.821579,1.6960374 c 0.01146,0.04729 0.256624,0.7788755 0.540266,1.6275351 0.28587,0.8486547 0.963455,2.8678872 1.508208,4.4909143 0.54477,1.6207674 1.071528,3.1897742 1.170578,3.4824232 l 0.182332,0.535747 h -3.432906 c -1.886397,0 -3.430646,-0.0065 -3.430646,-0.01801 0,-0.0131 2.00572,-6.0148926 3.063722,-9.1709122 0.191339,-0.5672735 0.353415,-1.0309934 0.360178,-1.0309934 0.0098,0 0.02473,0.038251 0.03832,0.083282 z m 19.429084,6.9175837 c 1.260606,3.7593029 2.43793,7.2687439 2.543727,7.5726419 0.06304,0.184592 0.114787,0.339906 0.114787,0.344409 0,0.0049 -1.544232,0.0066 -3.43289,0.0066 -1.888657,0 -3.432906,-0.0016 -3.432906,-0.0066 0,-0.01146 3.383373,-10.1343649 3.412634,-10.2131599 0.0065,-0.018012 0.07663,0.1575246 0.155396,0.3939424 0.07876,0.2341091 0.366925,1.0917665 0.639301,1.9021666 z"
       id="path1067"
       style="fill:#f2f2f2;fill-opacity:1;stroke:none;stroke-width:0.00225108" />
  </g>
</svg>
